<?xml version="1.0" encoding="UTF-8"?>
<!DOCTYPE svg PUBLIC "-//W3C//DTD SVG 1.1//EN" "http://www.w3.org/Graphics/SVG/1.1/DTD/svg11.dtd">
<svg xmlns="http://www.w3.org/2000/svg" xmlns:xlink="http://www.w3.org/1999/xlink" version="1.1" width="320px" height="320px" viewBox="-0.5 -0.5 320 320" style="background-color: rgb(255, 255, 255);"><defs/><rect fill="#ffffff" width="100%" height="100%" x="0" y="0"/><g><rect x="0" y="0" width="320" height="320" fill="#000000" stroke="none" pointer-events="all"/><path d="M 92.5 78.5 L 105.3 75.3 L 108.5 62.5 L 111.7 75.3 L 124.5 78.5 L 111.7 81.7 L 108.5 94.5 L 105.3 81.7 Z" fill="#d5e8d4" stroke="#82b366" stroke-width="2" stroke-miterlimit="10" pointer-events="all"/><path d="M 260 194.24 L 272.8 191.04 L 276 178.24 L 279.2 191.04 L 292 194.24 L 279.2 197.44 L 276 210.24 L 272.8 197.44 Z" fill="#f8cecc" stroke="#b85450" stroke-width="2" stroke-miterlimit="10" pointer-events="all"/><path d="M 50 206.56 L 240 236.56" fill="none" stroke="#b85450" stroke-width="4" stroke-miterlimit="10" pointer-events="stroke"/><path d="M 260 80 L 40.02 189.98" fill="none" stroke="#6c8ebf" stroke-width="4" stroke-miterlimit="10" pointer-events="stroke"/><path d="M 210 260 L 250 80" fill="none" stroke="#82b366" stroke-width="4" stroke-miterlimit="10" pointer-events="stroke"/><ellipse cx="239.43" cy="108.17" rx="43.4196371859614" ry="43.4196371859614" fill="#dae8fc" stroke="#6c8ebf" stroke-width="4" pointer-events="all"/><ellipse cx="68.42" cy="194.24" rx="43.4196371859614" ry="43.4196371859614" fill="#f8cecc" stroke="#b85450" stroke-width="4" pointer-events="all"/><ellipse cx="210.18" cy="226.04" rx="43.4196371859614" ry="43.4196371859614" fill="#d5e8d4" stroke="#82b366" stroke-width="4" pointer-events="all"/></g></svg>