<?xml version="1.0" encoding="UTF-8"?>
<!DOCTYPE svg PUBLIC "-//W3C//DTD SVG 1.1//EN" "http://www.w3.org/Graphics/SVG/1.1/DTD/svg11.dtd">
<svg xmlns="http://www.w3.org/2000/svg" xmlns:xlink="http://www.w3.org/1999/xlink" version="1.1" width="187px" height="135px" viewBox="-0.5 -0.5 187 135"><defs/><g><ellipse cx="16" cy="35" rx="15" ry="15" fill="#dae8fc" stroke="#6c8ebf" stroke-width="2" pointer-events="all"/><ellipse cx="165" cy="20" rx="15" ry="15" fill="#dae8fc" stroke="#6c8ebf" stroke-width="2" pointer-events="all"/><path d="M 26.61 24.39 L 150 20" fill="none" stroke="#6c8ebf" stroke-width="2" stroke-miterlimit="10" pointer-events="stroke"/><ellipse cx="95" cy="68" rx="15" ry="15" fill="#dae8fc" stroke="#6c8ebf" stroke-width="2" pointer-events="all"/><path d="M 31 35 L 84.39 57.39" fill="none" stroke="#6c8ebf" stroke-width="2" stroke-miterlimit="10" pointer-events="stroke"/><ellipse cx="135" cy="118" rx="15" ry="15" fill="#dae8fc" stroke="#6c8ebf" stroke-width="2" pointer-events="all"/><path d="M 159.99 35 L 145.61 107.39" fill="none" stroke="#6c8ebf" stroke-width="2" stroke-miterlimit="10" pointer-events="stroke"/><path d="M 105.61 78.61 L 124.39 107.39" fill="none" stroke="#6c8ebf" stroke-width="2" stroke-miterlimit="10" pointer-events="stroke"/><ellipse cx="46" cy="108" rx="15" ry="15" fill="#d5e8d4" stroke="#82b366" stroke-width="2" pointer-events="all"/><path d="M 16 50 L 35.39 97.39" fill="none" stroke="#6c8ebf" stroke-width="2" stroke-miterlimit="10" pointer-events="stroke"/><path d="M 84.39 78.61 L 56.61 97.39" fill="none" stroke="#6c8ebf" stroke-width="2" stroke-miterlimit="10" pointer-events="stroke"/><ellipse cx="181" cy="95" rx="5" ry="5" fill="#dae8fc" stroke="#6c8ebf" pointer-events="all"/><path d="M 0 88 L 4 87 L 5 83 L 6 87 L 10 88 L 6 89 L 5 93 L 4 89 Z" fill="#dae8fc" stroke="#6c8ebf" stroke-miterlimit="10" pointer-events="all"/><ellipse cx="66" cy="5" rx="5" ry="5" fill="#dae8fc" stroke="#6c8ebf" pointer-events="all"/><path d="M 130 58 L 134 57 L 135 53 L 136 57 L 140 58 L 136 59 L 135 63 L 134 59 Z" fill="#dae8fc" stroke="#6c8ebf" stroke-miterlimit="10" pointer-events="all"/></g></svg>