<?xml version="1.0" encoding="UTF-8"?>
<!DOCTYPE svg PUBLIC "-//W3C//DTD SVG 1.1//EN" "http://www.w3.org/Graphics/SVG/1.1/DTD/svg11.dtd">
<svg xmlns="http://www.w3.org/2000/svg" xmlns:xlink="http://www.w3.org/1999/xlink" version="1.1" width="128px" height="128px" viewBox="-0.5 -0.5 128 128"><defs/><g><path d="M 77.07 106.31 L 71.41 92.66" fill="none" stroke="#6c8ebf" stroke-width="2" stroke-miterlimit="10" pointer-events="stroke"/><path d="M 85.4 33.3 L 36.94 58.89" fill="none" stroke="#6c8ebf" stroke-width="4" stroke-miterlimit="10" pointer-events="stroke"/><path d="M 36.94 86.18 L 71.41 92.66" fill="none" stroke="#b85450" stroke-width="4" stroke-miterlimit="10" pointer-events="stroke"/><path d="M 96.68 74.31 L 104.7 52.6" fill="none" stroke="#82b366" stroke-width="4" stroke-miterlimit="10" pointer-events="stroke"/><ellipse cx="23.3" cy="72.53" rx="19.297616527093954" ry="19.297616527093954" fill="#f8cecc" stroke="#b85450" stroke-width="4" pointer-events="all"/><ellipse cx="104.7" cy="33.3" rx="19.297616527093954" ry="19.297616527093954" fill="#dae8fc" stroke="#6c8ebf" stroke-width="4" pointer-events="all"/><ellipse cx="90.71" cy="92.66" rx="19.297616527093954" ry="19.297616527093954" fill="#d5e8d4" stroke="#82b366" stroke-width="4" pointer-events="all"/><rect x="0" y="-0.7" width="128" height="128" fill="none" stroke="none" pointer-events="all"/><path d="M 44 32 L 48 31 L 49 27 L 50 31 L 54 32 L 50 33 L 49 37 L 48 33 Z" fill="#d5e8d4" stroke="#82b366" stroke-miterlimit="10" pointer-events="all"/><path d="M 114 72 L 118 71 L 119 67 L 120 71 L 124 72 L 120 73 L 119 77 L 118 73 Z" fill="#f8cecc" stroke="#b85450" stroke-miterlimit="10" pointer-events="all"/></g></svg>