<?xml version="1.0" encoding="UTF-8"?>
<!DOCTYPE svg PUBLIC "-//W3C//DTD SVG 1.1//EN" "http://www.w3.org/Graphics/SVG/1.1/DTD/svg11.dtd">
<svg xmlns="http://www.w3.org/2000/svg" xmlns:xlink="http://www.w3.org/1999/xlink" version="1.1" width="186px" height="133px" viewBox="-0.5 -0.5 186 133"><defs/><g><path d="M 16.41 115.38 C 14.71 115.38 13.08 114.68 11.88 113.44 C 10.68 112.2 10 110.52 10 108.76 L 10 16.08 C 10 14.33 10.68 12.64 11.88 11.4 C 13.08 10.16 14.71 9.46 16.41 9.46 L 67.67 9.46 C 69.37 9.46 71 10.16 72.2 11.4 C 73.4 12.64 74.08 14.33 74.08 16.08 C 74.08 14.33 74.75 12.64 75.95 11.4 C 77.15 10.16 78.78 9.46 80.48 9.46 L 131.75 9.46 C 133.44 9.46 135.07 10.16 136.28 11.4 C 137.48 12.64 138.15 14.33 138.15 16.08 L 138.15 108.76 C 138.15 110.52 137.48 112.2 136.28 113.44 C 135.07 114.68 133.44 115.38 131.75 115.38 Z M 74.08 16.08 L 74.08 122" fill="#fff2cc" stroke="#d6b656" stroke-width="2" stroke-miterlimit="10" pointer-events="all"/><path d="M 22.46 29.92 L 58.06 29.92" fill="none" stroke="#545454" stroke-width="3" stroke-miterlimit="10" pointer-events="stroke"/><path d="M 22.46 50.38 L 58.06 50.38" fill="none" stroke="#545454" stroke-width="3" stroke-miterlimit="10" pointer-events="stroke"/><path d="M 22.46 70.85 L 58.06 70.85" fill="none" stroke="#545454" stroke-width="3" stroke-miterlimit="10" pointer-events="stroke"/><path d="M 22.46 91.31 L 40.26 91.31" fill="none" stroke="#545454" stroke-width="3" stroke-miterlimit="10" pointer-events="stroke"/><path d="M 84.76 29.92 L 120.35 29.92" fill="none" stroke="#545454" stroke-width="3" stroke-miterlimit="10" pointer-events="stroke"/><path d="M 84.76 50.38 L 102.56 50.38" fill="none" stroke="#545454" stroke-width="3" stroke-miterlimit="10" pointer-events="stroke"/><path d="M 155.4 63.01 Q 178.5 54.21 178.5 10.2" fill="none" stroke="#6c8ebf" stroke-width="2" stroke-miterlimit="10" pointer-events="stroke"/><path d="M 132.3 80.62 Q 140 80.62 143.85 80.62 Q 147.7 80.62 151.55 76.22 Q 155.4 71.82 163.1 45.41" fill="none" stroke="#6c8ebf" stroke-width="2" stroke-miterlimit="10" pointer-events="stroke"/><path d="M 116.9 107.03 Q 163.1 19 178.5 10.2" fill="none" stroke="#6c8ebf" stroke-width="2" stroke-miterlimit="10" pointer-events="stroke"/><rect x="0" y="-0.77" width="186" height="133" fill="none" stroke="none" pointer-events="all"/></g></svg>