<?xml version="1.0" encoding="UTF-8"?>
<!DOCTYPE svg PUBLIC "-//W3C//DTD SVG 1.1//EN" "http://www.w3.org/Graphics/SVG/1.1/DTD/svg11.dtd">
<svg xmlns="http://www.w3.org/2000/svg" xmlns:xlink="http://www.w3.org/1999/xlink" version="1.1" width="188px" height="133px" viewBox="-0.5 -0.5 188 133"><defs/><g><ellipse cx="46.15" cy="66" rx="45.14563106796117" ry="40" fill="none" stroke="#6c8ebf" stroke-width="2" pointer-events="all"/><ellipse cx="27.38" cy="41.62" rx="4.707792207792208" ry="4.707792207792208" fill="#dae8fc" stroke="#6c8ebf" stroke-width="2" pointer-events="all"/><ellipse cx="68.21" cy="57.64" rx="4.001623376623378" ry="4.001623376623378" fill="#dae8fc" stroke="#6c8ebf" stroke-width="2" pointer-events="all"/><path d="M 32.09 41.62 L 65.38 54.81" fill="none" stroke="#6c8ebf" stroke-width="2" stroke-miterlimit="10" pointer-events="stroke"/><ellipse cx="45.98" cy="82.52" rx="7.061688311688313" ry="7.061688311688313" fill="#f8cecc" stroke="#b85450" stroke-width="2" stroke-dasharray="6 6" pointer-events="all"/><path d="M 27.38 46.32 L 40.99 77.52" fill="none" stroke="#6c8ebf" stroke-width="2" stroke-miterlimit="10" stroke-dasharray="6 6" pointer-events="stroke"/><path d="M 65.38 60.47 L 50.98 77.52" fill="none" stroke="#6c8ebf" stroke-width="2" stroke-miterlimit="10" stroke-dasharray="6 6" pointer-events="stroke"/><ellipse cx="141.85" cy="66" rx="45.14563106796117" ry="40" fill="none" stroke="#6c8ebf" stroke-width="2" pointer-events="all"/><ellipse cx="123.09" cy="41.62" rx="4.707792207792208" ry="4.707792207792208" fill="#dae8fc" stroke="#6c8ebf" stroke-width="2" pointer-events="all"/><ellipse cx="163.91" cy="57.64" rx="4.001623376623378" ry="4.001623376623378" fill="#dae8fc" stroke="#6c8ebf" stroke-width="2" pointer-events="all"/><path d="M 127.79 41.62 L 161.08 54.81" fill="none" stroke="#6c8ebf" stroke-width="2" stroke-miterlimit="10" pointer-events="stroke"/><ellipse cx="141.69" cy="82.52" rx="7.061688311688313" ry="7.061688311688313" fill="#f8cecc" stroke="#b85450" stroke-width="2" pointer-events="all"/><path d="M 123.09 46.32 L 136.7 77.52" fill="none" stroke="#6c8ebf" stroke-width="2" stroke-miterlimit="10" pointer-events="stroke"/><path d="M 161.08 60.47 L 146.69 77.52" fill="none" stroke="#6c8ebf" stroke-width="2" stroke-miterlimit="10" pointer-events="stroke"/><rect x="1" y="-0.5" width="186" height="133" fill="none" stroke="none" pointer-events="all"/></g></svg>