<?xml version="1.0" encoding="UTF-8"?>
<!DOCTYPE svg PUBLIC "-//W3C//DTD SVG 1.1//EN" "http://www.w3.org/Graphics/SVG/1.1/DTD/svg11.dtd">
<svg xmlns="http://www.w3.org/2000/svg" xmlns:xlink="http://www.w3.org/1999/xlink" version="1.1" width="186px" height="133px" viewBox="-0.5 -0.5 186 133"><defs/><g><rect x="0" y="0" width="186" height="133" fill="none" stroke="none" pointer-events="all"/><rect x="10" y="40" width="20" height="20" fill="#dae8fc" stroke="#6c8ebf" stroke-width="2" pointer-events="all"/><path d="M 40 48 L 48 48 L 48 40 L 52 40 L 52 48 L 60 48 L 60 52 L 52 52 L 52 60 L 48 60 L 48 52 L 40 52 Z" fill="#dae8fc" stroke="#6c8ebf" stroke-width="2" stroke-miterlimit="10" pointer-events="all"/><rect x="70" y="40" width="20" height="20" fill="#dae8fc" stroke="#6c8ebf" stroke-width="2" pointer-events="all"/><path d="M 100 46.8 L 110.8 46.8 L 110.8 40 L 120 50 L 110.8 60 L 110.8 53.2 L 100 53.2 Z" fill="#dae8fc" stroke="#6c8ebf" stroke-width="2" stroke-miterlimit="10" pointer-events="all"/><rect x="130" y="40" width="20" height="20" fill="#dae8fc" stroke="#6c8ebf" stroke-width="2" pointer-events="all"/><rect x="150" y="40" width="20" height="20" fill="#dae8fc" stroke="#6c8ebf" stroke-width="2" pointer-events="all"/><rect x="10" y="80" width="20" height="20" fill="#dae8fc" stroke="#6c8ebf" stroke-width="2" pointer-events="all"/><path d="M 40 88 L 48 88 L 48 80 L 52 80 L 52 88 L 60 88 L 60 92 L 52 92 L 52 100 L 48 100 L 48 92 L 40 92 Z" fill="#dae8fc" stroke="#6c8ebf" stroke-width="2" stroke-miterlimit="10" pointer-events="all"/><rect x="70" y="80" width="20" height="20" fill="#d5e8d4" stroke="#82b366" stroke-width="2" pointer-events="all"/><path d="M 100 86.8 L 110.8 86.8 L 110.8 80 L 120 90 L 110.8 100 L 110.8 93.2 L 100 93.2 Z" fill="#dae8fc" stroke="#6c8ebf" stroke-width="2" stroke-miterlimit="10" pointer-events="all"/><rect x="130" y="80" width="20" height="20" fill="#dae8fc" stroke="#6c8ebf" stroke-width="2" pointer-events="all"/><rect x="150" y="80" width="20" height="20" fill="#d5e8d4" stroke="#82b366" stroke-width="2" pointer-events="all"/></g></svg>