<?xml version="1.0" encoding="UTF-8"?>
<!DOCTYPE svg PUBLIC "-//W3C//DTD SVG 1.1//EN" "http://www.w3.org/Graphics/SVG/1.1/DTD/svg11.dtd">
<svg xmlns="http://www.w3.org/2000/svg" xmlns:xlink="http://www.w3.org/1999/xlink" version="1.1" width="186px" height="133px" viewBox="-0.5 -0.5 186 133"><defs/><g><rect x="112.75" y="86" width="30" height="30" fill="none" stroke="none" pointer-events="all"/><path d="M 136.6 107.12 C 135.7 108.02 134.12 108.02 133.22 107.12 C 132.77 106.67 132.52 106.07 132.52 105.43 C 132.52 104.79 132.77 104.19 133.22 103.74 C 133.67 103.29 134.27 103.05 134.91 103.05 C 135.55 103.05 136.15 103.29 136.6 103.74 C 137.05 104.19 137.3 104.79 137.3 105.43 C 137.3 106.07 137.05 106.67 136.6 107.12 Z M 134.91 101.68 C 133.91 101.68 132.97 102.07 132.26 102.78 C 131.55 103.49 131.16 104.43 131.16 105.43 C 131.16 106.43 131.55 107.38 132.26 108.08 C 132.97 108.79 133.91 109.18 134.91 109.18 C 135.91 109.18 136.85 108.79 137.56 108.08 C 138.27 107.38 138.66 106.43 138.66 105.43 C 138.66 104.43 138.27 103.49 137.56 102.78 C 136.85 102.07 135.91 101.68 134.91 101.68 Z M 122.28 107.12 C 121.38 108.02 119.81 108.02 118.9 107.12 C 118.45 106.67 118.2 106.07 118.2 105.43 C 118.2 104.79 118.45 104.19 118.9 103.74 C 119.35 103.29 119.95 103.05 120.59 103.05 C 121.23 103.05 121.83 103.29 122.28 103.74 C 122.73 104.19 122.98 104.79 122.98 105.43 C 122.98 106.07 122.73 106.67 122.28 107.12 Z M 120.59 101.68 C 119.59 101.68 118.65 102.07 117.94 102.78 C 117.23 103.49 116.84 104.43 116.84 105.43 C 116.84 106.43 117.23 107.38 117.94 108.08 C 118.65 108.79 119.59 109.18 120.59 109.18 C 121.59 109.18 122.53 108.79 123.24 108.08 C 123.95 107.38 124.34 106.43 124.34 105.43 C 124.34 104.43 123.95 103.49 123.24 102.78 C 122.53 102.07 121.59 101.68 120.59 101.68 Z M 141.39 111.62 C 141.39 111.78 141.26 111.91 141.1 111.91 L 114.4 111.91 C 114.24 111.91 114.11 111.78 114.11 111.62 L 114.11 98.72 C 114.11 98.47 114.31 98.27 114.56 98.27 L 140.94 98.27 C 141.19 98.27 141.39 98.47 141.39 98.72 Z M 126.51 94.8 L 129.33 94.8 C 130.64 94.8 131.74 95.7 132.07 96.91 L 123.77 96.91 C 124.1 95.7 125.2 94.8 126.51 94.8 Z M 126.39 88.73 C 126.39 87.98 127 87.36 127.75 87.36 C 128.5 87.36 129.11 87.98 129.11 88.73 C 129.11 89.48 128.5 90.09 127.75 90.09 C 127 90.09 126.39 89.48 126.39 88.73 Z M 140.94 96.91 L 133.48 96.91 C 133.12 94.94 131.4 93.44 129.33 93.44 L 128.43 93.44 L 128.43 91.36 C 129.61 91.05 130.48 89.99 130.48 88.73 C 130.48 87.22 129.25 86 127.75 86 C 126.25 86 125.02 87.22 125.02 88.73 C 125.02 89.99 125.9 91.05 127.07 91.36 L 127.07 93.44 L 126.51 93.44 C 124.44 93.44 122.72 94.94 122.37 96.91 L 114.56 96.91 C 113.56 96.91 112.75 97.72 112.75 98.72 L 112.75 111.62 C 112.75 112.53 113.49 113.27 114.4 113.27 L 122.98 113.27 L 122.98 116 L 124.34 116 L 124.34 113.27 L 131.16 113.27 L 131.16 116 L 132.52 116 L 132.52 113.27 L 141.1 113.27 C 142.01 113.27 142.75 112.53 142.75 111.62 L 142.75 98.72 C 142.75 97.72 141.94 96.91 140.94 96.91 Z" fill="#1ba1e2" stroke="none" pointer-events="all"/><rect x="18.75" y="46" width="40" height="40" fill="none" stroke="none" pointer-events="all"/><path d="M 50.55 74.16 C 49.34 75.36 47.25 75.36 46.05 74.16 C 45.45 73.56 45.11 72.76 45.11 71.91 C 45.11 71.06 45.45 70.26 46.05 69.66 C 46.65 69.06 47.45 68.73 48.3 68.73 C 49.15 68.73 49.94 69.06 50.55 69.66 C 51.15 70.26 51.48 71.06 51.48 71.91 C 51.48 72.76 51.15 73.56 50.55 74.16 Z M 48.3 66.91 C 46.96 66.91 45.7 67.43 44.76 68.37 C 43.82 69.32 43.3 70.57 43.3 71.91 C 43.3 73.24 43.82 74.5 44.76 75.44 C 45.7 76.39 46.96 76.91 48.3 76.91 C 49.63 76.91 50.89 76.39 51.83 75.44 C 52.78 74.5 53.3 73.24 53.3 71.91 C 53.3 70.57 52.78 69.32 51.83 68.37 C 50.89 67.43 49.63 66.91 48.3 66.91 Z M 31.45 74.16 C 30.25 75.36 28.16 75.36 26.96 74.16 C 26.35 73.56 26.02 72.76 26.02 71.91 C 26.02 71.06 26.35 70.26 26.96 69.66 C 27.56 69.06 28.36 68.73 29.2 68.73 C 30.05 68.73 30.85 69.06 31.45 69.66 C 32.06 70.26 32.39 71.06 32.39 71.91 C 32.39 72.76 32.06 73.56 31.45 74.16 Z M 29.2 66.91 C 27.87 66.91 26.61 67.43 25.67 68.37 C 24.73 69.32 24.2 70.57 24.2 71.91 C 24.2 73.24 24.73 74.5 25.67 75.44 C 26.61 76.39 27.87 76.91 29.2 76.91 C 30.54 76.91 31.8 76.39 32.74 75.44 C 33.68 74.5 34.2 73.24 34.2 71.91 C 34.2 70.57 33.68 69.32 32.74 68.37 C 31.8 67.43 30.54 66.91 29.2 66.91 Z M 56.93 80.16 C 56.93 80.37 56.76 80.55 56.55 80.55 L 20.95 80.55 C 20.74 80.55 20.57 80.37 20.57 80.16 L 20.57 62.96 C 20.57 62.63 20.83 62.36 21.16 62.36 L 56.34 62.36 C 56.67 62.36 56.93 62.63 56.93 62.96 Z M 37.09 57.74 L 40.86 57.74 C 42.61 57.74 44.07 58.93 44.51 60.55 L 33.44 60.55 C 33.88 58.93 35.34 57.74 37.09 57.74 Z M 36.93 49.64 C 36.93 48.63 37.75 47.82 38.75 47.82 C 39.75 47.82 40.57 48.63 40.57 49.64 C 40.57 50.64 39.75 51.45 38.75 51.45 C 37.75 51.45 36.93 50.64 36.93 49.64 Z M 56.34 60.55 L 46.38 60.55 C 45.91 57.92 43.62 55.92 40.86 55.92 L 39.66 55.92 L 39.66 53.14 C 41.22 52.74 42.39 51.33 42.39 49.64 C 42.39 47.63 40.76 46 38.75 46 C 36.74 46 35.11 47.63 35.11 49.64 C 35.11 51.33 36.28 52.74 37.84 53.14 L 37.84 55.92 L 37.09 55.92 C 34.34 55.92 32.04 57.92 31.57 60.55 L 21.16 60.55 C 19.83 60.55 18.75 61.63 18.75 62.96 L 18.75 80.16 C 18.75 81.38 19.74 82.36 20.95 82.36 L 32.39 82.36 L 32.39 86 L 34.2 86 L 34.2 82.36 L 43.3 82.36 L 43.3 86 L 45.11 86 L 45.11 82.36 L 56.55 82.36 C 57.76 82.36 58.75 81.38 58.75 80.16 L 58.75 62.96 C 58.75 61.63 57.67 60.55 56.34 60.55 Z" fill="#f0a30a" stroke="none" pointer-events="all"/><path d="M 78.75 91 Q 98.75 71 78.75 51" fill="none" stroke="#ffb570" stroke-width="2" stroke-miterlimit="10" pointer-events="stroke"/><rect x="122.25" y="51" width="30" height="30" fill="none" stroke="none" pointer-events="all"/><path d="M 146.1 72.12 C 145.2 73.02 143.62 73.02 142.72 72.12 C 142.27 71.67 142.02 71.07 142.02 70.43 C 142.02 69.79 142.27 69.19 142.72 68.74 C 143.17 68.29 143.77 68.05 144.41 68.05 C 145.05 68.05 145.65 68.29 146.1 68.74 C 146.55 69.19 146.8 69.79 146.8 70.43 C 146.8 71.07 146.55 71.67 146.1 72.12 Z M 144.41 66.68 C 143.41 66.68 142.47 67.07 141.76 67.78 C 141.05 68.49 140.66 69.43 140.66 70.43 C 140.66 71.43 141.05 72.38 141.76 73.08 C 142.47 73.79 143.41 74.18 144.41 74.18 C 145.41 74.18 146.35 73.79 147.06 73.08 C 147.77 72.38 148.16 71.43 148.16 70.43 C 148.16 69.43 147.77 68.49 147.06 67.78 C 146.35 67.07 145.41 66.68 144.41 66.68 Z M 131.78 72.12 C 130.88 73.02 129.31 73.02 128.4 72.12 C 127.95 71.67 127.7 71.07 127.7 70.43 C 127.7 69.79 127.95 69.19 128.4 68.74 C 128.85 68.29 129.45 68.05 130.09 68.05 C 130.73 68.05 131.33 68.29 131.78 68.74 C 132.23 69.19 132.48 69.79 132.48 70.43 C 132.48 71.07 132.23 71.67 131.78 72.12 Z M 130.09 66.68 C 129.09 66.68 128.15 67.07 127.44 67.78 C 126.73 68.49 126.34 69.43 126.34 70.43 C 126.34 71.43 126.73 72.38 127.44 73.08 C 128.15 73.79 129.09 74.18 130.09 74.18 C 131.09 74.18 132.03 73.79 132.74 73.08 C 133.45 72.38 133.84 71.43 133.84 70.43 C 133.84 69.43 133.45 68.49 132.74 67.78 C 132.03 67.07 131.09 66.68 130.09 66.68 Z M 150.89 76.62 C 150.89 76.78 150.76 76.91 150.6 76.91 L 123.9 76.91 C 123.74 76.91 123.61 76.78 123.61 76.62 L 123.61 63.72 C 123.61 63.47 123.81 63.27 124.06 63.27 L 150.44 63.27 C 150.69 63.27 150.89 63.47 150.89 63.72 Z M 136.01 59.8 L 138.83 59.8 C 140.14 59.8 141.24 60.7 141.57 61.91 L 133.27 61.91 C 133.6 60.7 134.7 59.8 136.01 59.8 Z M 135.89 53.73 C 135.89 52.98 136.5 52.36 137.25 52.36 C 138 52.36 138.61 52.98 138.61 53.73 C 138.61 54.48 138 55.09 137.25 55.09 C 136.5 55.09 135.89 54.48 135.89 53.73 Z M 150.44 61.91 L 142.98 61.91 C 142.62 59.94 140.9 58.44 138.83 58.44 L 137.93 58.44 L 137.93 56.36 C 139.11 56.05 139.98 54.99 139.98 53.73 C 139.98 52.22 138.75 51 137.25 51 C 135.75 51 134.52 52.22 134.52 53.73 C 134.52 54.99 135.4 56.05 136.57 56.36 L 136.57 58.44 L 136.01 58.44 C 133.94 58.44 132.22 59.94 131.87 61.91 L 124.06 61.91 C 123.06 61.91 122.25 62.72 122.25 63.72 L 122.25 76.62 C 122.25 77.53 122.99 78.27 123.9 78.27 L 132.48 78.27 L 132.48 81 L 133.84 81 L 133.84 78.27 L 140.66 78.27 L 140.66 81 L 142.02 81 L 142.02 78.27 L 150.6 78.27 C 151.51 78.27 152.25 77.53 152.25 76.62 L 152.25 63.72 C 152.25 62.72 151.44 61.91 150.44 61.91 Z" fill="#1ba1e2" stroke="none" pointer-events="all"/><rect x="112.75" y="16" width="30" height="30" fill="none" stroke="none" pointer-events="all"/><path d="M 136.6 37.12 C 135.7 38.02 134.12 38.02 133.22 37.12 C 132.77 36.67 132.52 36.07 132.52 35.43 C 132.52 34.79 132.77 34.19 133.22 33.74 C 133.67 33.29 134.27 33.05 134.91 33.05 C 135.55 33.05 136.15 33.29 136.6 33.74 C 137.05 34.19 137.3 34.79 137.3 35.43 C 137.3 36.07 137.05 36.67 136.6 37.12 Z M 134.91 31.68 C 133.91 31.68 132.97 32.07 132.26 32.78 C 131.55 33.49 131.16 34.43 131.16 35.43 C 131.16 36.43 131.55 37.38 132.26 38.08 C 132.97 38.79 133.91 39.18 134.91 39.18 C 135.91 39.18 136.85 38.79 137.56 38.08 C 138.27 37.38 138.66 36.43 138.66 35.43 C 138.66 34.43 138.27 33.49 137.56 32.78 C 136.85 32.07 135.91 31.68 134.91 31.68 Z M 122.28 37.12 C 121.38 38.02 119.81 38.02 118.9 37.12 C 118.45 36.67 118.2 36.07 118.2 35.43 C 118.2 34.79 118.45 34.19 118.9 33.74 C 119.35 33.29 119.95 33.05 120.59 33.05 C 121.23 33.05 121.83 33.29 122.28 33.74 C 122.73 34.19 122.98 34.79 122.98 35.43 C 122.98 36.07 122.73 36.67 122.28 37.12 Z M 120.59 31.68 C 119.59 31.68 118.65 32.07 117.94 32.78 C 117.23 33.49 116.84 34.43 116.84 35.43 C 116.84 36.43 117.23 37.38 117.94 38.08 C 118.65 38.79 119.59 39.18 120.59 39.18 C 121.59 39.18 122.53 38.79 123.24 38.08 C 123.95 37.38 124.34 36.43 124.34 35.43 C 124.34 34.43 123.95 33.49 123.24 32.78 C 122.53 32.07 121.59 31.68 120.59 31.68 Z M 141.39 41.62 C 141.39 41.78 141.26 41.91 141.1 41.91 L 114.4 41.91 C 114.24 41.91 114.11 41.78 114.11 41.62 L 114.11 28.72 C 114.11 28.47 114.31 28.27 114.56 28.27 L 140.94 28.27 C 141.19 28.27 141.39 28.47 141.39 28.72 Z M 126.51 24.8 L 129.33 24.8 C 130.64 24.8 131.74 25.7 132.07 26.91 L 123.77 26.91 C 124.1 25.7 125.2 24.8 126.51 24.8 Z M 126.39 18.73 C 126.39 17.98 127 17.36 127.75 17.36 C 128.5 17.36 129.11 17.98 129.11 18.73 C 129.11 19.48 128.5 20.09 127.75 20.09 C 127 20.09 126.39 19.48 126.39 18.73 Z M 140.94 26.91 L 133.48 26.91 C 133.12 24.94 131.4 23.44 129.33 23.44 L 128.43 23.44 L 128.43 21.36 C 129.61 21.05 130.48 19.99 130.48 18.73 C 130.48 17.22 129.25 16 127.75 16 C 126.25 16 125.02 17.22 125.02 18.73 C 125.02 19.99 125.9 21.05 127.07 21.36 L 127.07 23.44 L 126.51 23.44 C 124.44 23.44 122.72 24.94 122.37 26.91 L 114.56 26.91 C 113.56 26.91 112.75 27.72 112.75 28.72 L 112.75 41.62 C 112.75 42.53 113.49 43.27 114.4 43.27 L 122.98 43.27 L 122.98 46 L 124.34 46 L 124.34 43.27 L 131.16 43.27 L 131.16 46 L 132.52 46 L 132.52 43.27 L 141.1 43.27 C 142.01 43.27 142.75 42.53 142.75 41.62 L 142.75 28.72 C 142.75 27.72 141.94 26.91 140.94 26.91 Z" fill="#1ba1e2" stroke="none" pointer-events="all"/><path d="M 68.75 81 Q 78.75 71 68.75 61" fill="none" stroke="#ffb570" stroke-width="2" stroke-miterlimit="10" pointer-events="stroke"/><path d="M 88.75 101 Q 118.75 71 88.75 41" fill="none" stroke="#ffb570" stroke-width="2" stroke-miterlimit="10" pointer-events="stroke"/><rect x="0" y="-0.5" width="186" height="133" fill="none" stroke="none" pointer-events="all"/></g></svg>